# File created by Blade
# Date/Time:  Tue Apr 07 20:49:15 2015
#---------------------------------------------------------
:version 1.10
:name HOM
:units
  mass 1.0
  length 1.000000
  angle deg
:documentation
     Acclaim Skeleton File
:root
   axis xyz
   order TX TY TZ RX RY RZ
   position 0.000000 0.000000 0.000000
   orientation 0 0 0
:bonedata
   begin
      id 1
      name Spine_dum
      direction 0.000000 1.000000 0.000000
      length 4.885285
      axis 0.0 0.0 0.0 xyz
   end
   begin
      id 2
      name LeftUpLeg_dum
      direction 1.000000 0.000000 0.000000
      length 2.672193
      axis 0.0 0.0 0.0 xyz
   end
   begin
      id 3
      name RightUpLeg_dum
      direction -1.000000 0.000000 0.000000
      length 2.672193
      axis 0.0 0.0 0.0 xyz
   end
   begin
      id 4
      name Spine
      direction 0.000000 1.000000 0.000000
      length 0.000000
      axis 0.0 0.0 0.0 xyz
      dof rx ry rz
   end
   begin
      id 5
      name Spine_dum1
      direction 0.000000 1.000000 0.000000
      length 16.494159
      axis 0.0 0.0 0.0 xyz
   end
   begin
      id 6
      name Spine_dum2
      direction 0.000000 1.000000 0.000000
      length 10.663448
      axis 0.0 0.0 0.0 xyz
   end
   begin
      id 7
      name Spine_dum3
      direction 0.000000 1.000000 0.000000
      length 10.663448
      axis 0.0 0.0 0.0 xyz
   end
   begin
      id 8
      name Head
      direction 0.000000 1.000000 0.000000
      length 4.527550
      axis 0.0 0.0 0.0 xyz
      dof rx ry rz
   end
   begin
      id 9
      name LeftShoulder
      direction 1.000000 0.000000 0.000000
      length 7.531907
      axis 0.0 0.0 -90.0 xyz
      dof rx ry rz
   end
   begin
      id 10
      name LeftArm
      direction 1.000000 0.000000 0.000000
      length 10.229199
      axis 0.0 0.0 -90.0 xyz
      dof rx ry rz
   end
   begin
      id 11
      name LeftForeArm
      direction 1.000000 0.000000 0.000000
      length 8.673495
      axis 0.0 0.0 -90.0 xyz
      dof ry rz rx
   end
   begin
      id 12
      name LeftHand
      direction 0.000000 0.000000 0.000000
      length 0.000000
      axis 0.0 0.0 -90.0 xyz
      dof rx ry rz
   end
   begin
      id 13
      name LeftHand_dum1
      direction 0.000000 0.000000 0.000000
      length 0.000000
      axis 0.0 0.0 -90.0 xyz
   end
   begin
      id 14
      name LeftHand_dum2
      direction 1.000000 0.000000 0.000000
      length 3.937000
      axis 0.0 0.0 -90.0 xyz
   end
   begin
      id 15
      name LeftHandThumb1
      direction 0.000000 0.000000 1.000000
      length 3.937000
      axis 0.0 0.0 -90.0 xyz
      dof rx rz ry
   end
   begin
      id 16
      name RightShoulder
      direction -1.000000 0.000000 0.000000
      length 7.531907
      axis 0.0 0.0 90.0 xyz
      dof rx ry rz
   end
   begin
      id 17
      name RightArm
      direction -1.000000 0.000000 0.000000
      length 10.229199
      axis 0.0 0.0 90.0 xyz
      dof rx ry rz
   end
   begin
      id 18
      name RightForeArm
      direction -1.000000 0.000000 0.000000
      length 8.673495
      axis 0.0 0.0 90.0 xyz
      dof ry rz rx
   end
   begin
      id 19
      name RightHand
      direction 0.000000 0.000000 0.000000
      length 0.000000
      axis 0.0 0.0 90.0 xyz
      dof rx ry rz
   end
   begin
      id 20
      name RightHand_dum1
      direction 0.000000 0.000000 0.000000
      length 0.000000
      axis 0.0 0.0 90.0 xyz
   end
   begin
      id 21
      name RightHand_dum2
      direction -1.000000 0.000000 0.000000
      length 3.937000
      axis 0.0 0.0 90.0 xyz
   end
   begin
      id 22
      name RightHandThumb1
      direction 0.000000 0.000000 1.000000
      length 3.937000
      axis 0.0 0.0 90.0 xyz
      dof rx rz ry
   end
   begin
      id 23
      name LeftUpLeg
      direction 0.000000 -1.000000 0.000000
      length 16.263388
      axis 0.0 0.0 0.0 xyz
      dof rx ry rz
   end
   begin
      id 24
      name LeftLeg
      direction 0.000000 -1.000000 0.000000
      length 14.328163
      axis 0.0 0.0 0.0 xyz
      dof rx ry rz
   end
   begin
      id 25
      name LeftFoot
      direction 0.000000 -0.258819 0.965926
      length 5.031290
      axis 15.0 0.0 0.0 xyz
      dof rx ry rz
   end
   begin
      id 26
      name LeftToeBase
      direction 0.000000 0.000000 1.000000
      length 2.952750
      axis 0.0 0.0 0.0 xyz
      dof rx ry rz
   end
   begin
      id 27
      name RightUpLeg
      direction 0.000000 -1.000000 0.000000
      length 16.263388
      axis 0.0 0.0 0.0 xyz
      dof rx ry rz
   end
   begin
      id 28
      name RightLeg
      direction 0.000000 -1.000000 0.000000
      length 14.328163
      axis 0.0 0.0 0.0 xyz
      dof rx ry rz
   end
   begin
      id 29
      name RightFoot
      direction 0.000000 -0.258819 0.965926
      length 5.031290
      axis 15.0 0.0 0.0 xyz
      dof rx ry rz
   end
   begin
      id 30
      name RightToeBase
      direction 0.000000 0.000000 1.000000
      length 2.952750
      axis 0.0 0.0 0.0 xyz
      dof rx ry rz
   end
:hierarchy
   begin
      root Spine_dum LeftUpLeg_dum RightUpLeg_dum
      Spine_dum Spine
      LeftUpLeg_dum LeftUpLeg
      RightUpLeg_dum RightUpLeg
      Spine Spine_dum1 Spine_dum2 Spine_dum3
      Spine_dum1 Head
      Spine_dum2 LeftShoulder
      Spine_dum3 RightShoulder
      LeftShoulder LeftArm
      LeftArm LeftForeArm
      LeftForeArm LeftHand
      LeftHand LeftHand_dum1 LeftHand_dum2
      LeftHand_dum1 LeftHandThumb1
      RightShoulder RightArm
      RightArm RightForeArm
      RightForeArm RightHand
      RightHand RightHand_dum1 RightHand_dum2
      RightHand_dum1 RightHandThumb1
      LeftUpLeg LeftLeg
      LeftLeg LeftFoot
      LeftFoot LeftToeBase
      RightUpLeg RightLeg
      RightLeg RightFoot
      RightFoot RightToeBase
   end

# File created by Blade
# Date/Time:  Tue Apr 07 20:49:23 2015
# Frame Rate: 120.000 fps
#------------------------------------------------------
:FULLY-SPECIFIED
:DEGREES
96
root 2.840420 33.416637 -2.007241 6.713472 16.041518 -5.775235
Spine -10.776919 -3.160564 8.426336
Head 11.907933 2.678344 -6.333467
LeftShoulder -22.104954 41.445896 16.425827
LeftArm 65.912809 -51.096195 -75.080520
LeftForeArm 12.126196 0.000000 13.265418
LeftHand 4.815432 -0.000000 13.175824
LeftHandThumb1 -26.253704 0.000000 33.147579
RightShoulder -5.795670 1.882504 -29.023340
RightArm 9.656751 14.564040 46.612057
RightForeArm -9.463878 -0.000000 6.811666
RightHand 8.693247 -0.000000 -10.936551
RightHandThumb1 -24.326973 -0.000000 -32.862282
LeftUpLeg -5.409062 -12.713599 11.137928
LeftLeg -0.868996 -0.000000 0.000000
LeftFoot 1.788529 0.587926 -22.691721
LeftToeBase -15.363995 -0.000000 0.000000
RightUpLeg -2.609758 6.739635 2.381493
RightLeg 2.216442 -0.000000 -0.000000
RightFoot 1.578975 -2.665126 9.764024
RightToeBase -17.976824 -0.000000 0.000000
97
root 2.805574 33.416173 -2.032383 6.684554 16.775208 -5.709582
Spine -10.759050 -3.165628 8.423420
Head 11.941616 2.698480 -6.408647
LeftShoulder -22.087820 41.542090 16.155106
LeftArm 66.846168 -50.661740 -77.484424
LeftForeArm 12.723352 -0.000000 15.330209
LeftHand 4.784390 -0.000000 13.840802
LeftHandThumb1 -26.253704 0.000000 33.147579
RightShoulder -5.823835 1.541766 -28.768031
RightArm 9.370928 14.351460 46.964530
RightForeArm -9.359505 -0.000000 7.777748
RightHand 9.140968 -0.000000 -11.422976
RightHandThumb1 -24.326973 -0.000000 -32.862282
LeftUpLeg -5.757792 -12.988324 11.195301
LeftLeg -0.578059 -0.000000 0.000000
LeftFoot 1.863001 0.317028 -22.643714
LeftToeBase -15.414309 -0.000000 0.000000
RightUpLeg -2.697635 7.292473 2.078317
RightLeg 2.504813 -0.000000 -0.000000
RightFoot 1.406312 -2.279866 9.767770
RightToeBase -17.985448 -0.000000 0.000000
98
root 2.770308 33.410744 -2.059273 6.644086 17.572045 -5.612175
Spine -10.717026 -3.253984 8.398234
Head 11.959696 2.731977 -6.489765
LeftShoulder -22.105181 41.639842 15.824622
LeftArm 67.486401 -50.125837 -79.561297
LeftForeArm 12.972095 -0.000000 17.475417
LeftHand 4.898999 -0.000000 14.276961
LeftHandThumb1 -26.253704 0.000000 33.147579
RightShoulder -5.822080 1.105913 -28.507798
RightArm 9.194742 14.319551 47.406141
RightForeArm -9.348596 -0.000000 8.678175
RightHand 9.452760 -0.000000 -11.826403
RightHandThumb1 -24.326973 -0.000000 -32.862282
LeftUpLeg -6.119593 -13.247343 11.220858
LeftLeg -0.265600 -0.000000 0.000000
LeftFoot 1.955272 -0.066772 -22.588695
LeftToeBase -15.502066 -0.000000 0.000000
RightUpLeg -2.748343 7.748137 1.766112
RightLeg 2.767283 -0.000000 -0.000000
RightFoot 1.198102 -1.860058 9.833527
RightToeBase -18.240372 -0.000000 0.000000
99
root 2.733482 33.400054 -2.089167 6.642452 18.432948 -5.478405
Spine -10.694770 -3.334310 8.310297
Head 11.929741 2.721697 -6.492897
LeftShoulder -22.072874 41.690017 15.562762
LeftArm 67.987895 -49.457378 -81.537746
LeftForeArm 13.197179 0.000000 19.649465
LeftHand 5.044740 -0.000000 14.919262
LeftHandThumb1 -26.253704 0.000000 33.147579
RightShoulder -5.832195 0.692664 -28.244312
RightArm 8.912691 14.288387 47.877374
RightForeArm -9.442161 0.000000 9.572416
RightHand 9.589639 0.000000 -12.272693
RightHandThumb1 -24.326973 -0.000000 -32.862282
LeftUpLeg -6.502865 -13.631951 11.237438
LeftLeg -0.011752 -0.000000 0.000000
LeftFoot 2.014631 -0.390909 -22.652080
LeftToeBase -15.483405 -0.000000 0.000000
RightUpLeg -2.831157 8.167194 1.436320
RightLeg 3.031921 -0.000000 -0.000000
RightFoot 0.888989 -1.502673 9.730752
RightToeBase -18.111143 -0.000000 0.000000
100
root 2.688899 33.385415 -2.123189 6.637552 19.241469 -5.339690
Spine -10.625281 -3.415592 8.194524
Head 11.848690 2.756596 -6.468267
LeftShoulder -22.184704 41.862704 15.150895
LeftArm 68.620568 -48.759006 -83.607383
LeftForeArm 13.525718 -0.000000 21.901989
LeftHand 4.890801 -0.000000 15.697728
LeftHandThumb1 -26.253704 0.000000 33.147579
RightShoulder -5.824448 0.297167 -27.914961
RightArm 8.736643 14.311192 48.356478
RightForeArm -9.625207 0.000000 10.378804
RightHand 9.763400 -0.000000 -12.473002
RightHandThumb1 -24.326973 -0.000000 -32.862282
LeftUpLeg -6.886753 -13.873422 11.245058
LeftLeg 0.277838 -0.000000 -0.000000
LeftFoot 2.047969 -0.803046 -22.661981
LeftToeBase -15.427519 -0.000000 0.000000
RightUpLeg -2.922316 8.625421 1.116250
RightLeg 3.278932 -0.000000 -0.000000
RightFoot 0.594222 -1.177211 9.777995
RightToeBase -18.094975 -0.000000 0.000000
101
root 2.643488 33.367245 -2.158754 6.622461 20.109046 -5.157763
Spine -10.517735 -3.491478 8.014030
Head 11.731443 2.743679 -6.398400
LeftShoulder -22.201439 41.918314 14.828637
LeftArm 68.973898 -47.947090 -85.407672
LeftForeArm 13.851336 -0.000000 24.111699
LeftHand 5.041146 -0.000000 16.176875
LeftHandThumb1 -26.253704 0.000000 33.147579
RightShoulder -5.873102 -0.077053 -27.569093
RightArm 8.561609 14.161545 48.828271
RightForeArm -9.719477 -0.000000 11.075100
RightHand 9.856991 -0.000000 -12.854264
RightHandThumb1 -24.326973 -0.000000 -32.862282
LeftUpLeg -7.247082 -14.159838 11.208129
LeftLeg 0.519006 -0.000000 -0.000000
LeftFoot 2.120526 -1.229287 -22.727079
LeftToeBase -15.250452 -0.000000 0.000000
RightUpLeg -2.958511 8.951974 0.798662
RightLeg 3.458041 -0.000000 -0.000000
RightFoot 0.336472 -0.931686 9.767536
RightToeBase -18.295429 -0.000000 0.000000
102
root 2.595693 33.344215 -2.192294 6.632177 21.033965 -4.989615
Spine -10.438854 -3.594554 7.853408
Head 11.557811 2.703682 -6.336377
LeftShoulder -22.129228 41.860425 14.561622
LeftArm 68.823656 -47.085003 -86.702473
LeftForeArm 14.018207 0.000000 26.357292
LeftHand 5.246502 0.000000 16.284045
LeftHandThumb1 -26.253704 0.000000 33.147579
RightShoulder -5.966278 -0.371338 -27.256003
RightArm 8.400530 13.934166 49.343715
RightForeArm -9.882701 -0.000000 11.634180
RightHand 10.108686 -0.000000 -12.878538
RightHandThumb1 -24.326973 -0.000000 -32.862282
LeftUpLeg -7.625227 -14.506891 11.215597
LeftLeg 0.718132 -0.000000 -0.000000
LeftFoot 2.139724 -1.686492 -22.826962
LeftToeBase -15.129935 -0.000000 0.000000
RightUpLeg -2.971862 9.209262 0.522614
RightLeg 3.522169 -0.000000 -0.000000
RightFoot 0.044614 -0.722292 9.898789
RightToeBase -18.291010 -0.000000 0.000000
103
root 2.540457 33.319234 -2.227591 6.661586 21.989079 -4.829454
Spine -10.391749 -3.755094 7.713046
Head 11.428602 2.744170 -6.308541
LeftShoulder -22.120663 41.945180 14.176088
LeftArm 68.905890 -46.245030 -88.158393
LeftForeArm 14.463267 -0.000000 28.469629
LeftHand 5.381610 -0.000000 16.209030
LeftHandThumb1 -26.253704 0.000000 33.147579
RightShoulder -5.995625 -0.639191 -26.988702
RightArm 8.249025 13.663217 49.960157
RightForeArm -10.101845 -0.000000 12.151058
RightHand 10.210860 -0.000000 -13.174844
RightHandThumb1 -24.326973 -0.000000 -32.862282
LeftUpLeg -8.041410 -14.817248 11.240716
LeftLeg 0.925084 -0.000000 -0.000000
LeftFoot 2.196191 -2.169533 -22.882708
LeftToeBase -15.174036 -0.000000 0.000000
RightUpLeg -2.984148 9.374954 0.305694
RightLeg 3.547501 -0.000000 -0.000000
RightFoot -0.291119 -0.637423 10.082212
RightToeBase -18.138865 -0.000000 0.000000
104
root 2.482687 33.291097 -2.257495 6.686886 22.975801 -4.664007
Spine -10.347130 -3.899441 7.536654
Head 11.317766 2.728960 -6.225657
LeftShoulder -22.025204 41.886969 13.870488
LeftArm 68.115946 -45.238001 -88.544960
LeftForeArm 14.391171 -0.000000 30.690514
LeftHand 4.949979 -0.000000 16.539567
LeftHandThumb1 -26.253704 0.000000 33.147579
RightShoulder -6.067779 -0.870439 -26.721628
RightArm 8.067230 13.243059 50.600500
RightForeArm -10.215277 0.000000 12.608564
RightHand 10.022037 -0.000000 -13.308704
RightHandThumb1 -24.326973 -0.000000 -32.862282
LeftUpLeg -8.428767 -15.142568 11.268993
LeftLeg 1.096720 -0.000000 -0.000000
LeftFoot 2.221916 -2.687252 -23.002747
LeftToeBase -15.070385 -0.000000 0.000000
RightUpLeg -2.943894 9.449280 0.143506
RightLeg 3.523935 -0.000000 -0.000000
RightFoot -0.673266 -0.680087 10.337353
RightToeBase -17.975599 -0.000000 0.000000
105
root 2.421297 33.262009 -2.290358 6.710950 23.991525 -4.499899
Spine -10.288988 -4.087354 7.366936
Head 11.178026 2.754801 -6.142148
LeftShoulder -22.024261 41.940404 13.456788
LeftArm 67.775305 -44.220539 -89.306839
LeftForeArm 14.700577 0.000000 32.653089
LeftHand 4.711782 -0.000000 16.664189
LeftHandThumb1 -26.253704 0.000000 33.147579
RightShoulder -6.067323 -1.028069 -26.504058
RightArm 7.805011 12.893673 51.319901
RightForeArm -10.373116 0.000000 12.953215
RightHand 10.314032 0.000000 -13.030590
RightHandThumb1 -24.326973 -0.000000 -32.862282
LeftUpLeg -8.810266 -15.501192 11.306248
LeftLeg 1.231916 -0.000000 -0.000000
LeftFoot 2.264311 -3.179715 -23.066082
LeftToeBase -15.014237 -0.000000 0.000000
RightUpLeg -2.894656 9.308409 0.044221
RightLeg 3.517777 -0.000000 -0.000000
RightFoot -1.100997 -0.767982 10.527691
RightToeBase -17.701564 -0.000000 0.000000
